<?xml version="1.0"?><svg xmlns="http://www.w3.org/2000/svg" width="640" height="900" viewBox="0 0 640 900">
<rect width="100%" height="100%" fill="#6a6560"/>
<text x="16" y="32" fill="#eee" font-family="monospace" font-size="15">normal human hunter</text>
<path d="M318.8631347632734,790.155 L302.62142331904084,792.99 L302.62142331904084,808.866 L318.8631347632734,811.701 Z" fill="#4a2830" stroke="#1a1010" stroke-width="1"/><circle cx="318.8631347632734" cy="800.928" r="10.773000000000001" fill="#4a2830" stroke="#1a1010" stroke-width="1"/><circle cx="302.62142331904084" cy="800.928" r="7.938" fill="#4a2830" stroke="#1a1010" stroke-width="1"/><path d="M298.2150150498857,689.727077580265 L306.7795905214965,781.0431807522748 L322.62069728509584,779.9911767103399 L319.03475536775915,688.3444436965793 Z" fill="#d07040" stroke="#1a1010" stroke-width="1"/><circle cx="308.62488520882243" cy="689.0357606384222" r="10.4328" fill="#d07040" stroke="#1a1010" stroke-width="1"/><circle cx="314.7001439032962" cy="780.5171787313074" r="7.938" fill="#d07040" stroke="#1a1010" stroke-width="1"/><path d="M368.3642236672451,783.3861105522105 L352.1225122230125,786.2211105522106 L352.1225122230125,802.0971105522106 L368.3642236672451,804.9321105522106 Z" fill="#4a2830" stroke="#1a1010" stroke-width="1"/><circle cx="368.3642236672451" cy="794.1591105522106" r="10.773000000000001" fill="#4a2830" stroke="#1a1010" stroke-width="1"/><circle cx="352.1225122230125" cy="794.1591105522106" r="7.938" fill="#4a2830" stroke="#1a1010" stroke-width="1"/><path d="M300.0166310896122,584.7484962953681 L296.75684955714667,688.0732749135657 L320.4929208604982,689.9982463632787 L333.92530438011437,587.498455509244 Z" fill="#d07040" stroke="#1a1010" stroke-width="1"/><circle cx="316.9709677348633" cy="586.123475902306" r="17.009999999999998" fill="#d07040" stroke="#1a1010" stroke-width="1"/><circle cx="308.62488520882243" cy="689.0357606384222" r="11.907" fill="#d07040" stroke="#1a1010" stroke-width="1"/><path d="M272.5540234509898,489.692957735972 L271.92859476362315,560.9902331515785 L289.8341215945921,561.7103087763936 L294.935931989701,490.5930522669908 Z" fill="#d07040" stroke="#1a1010" stroke-width="1"/><circle cx="283.7449777203454" cy="490.1430050014814" r="11.200000000000001" fill="#d07040" stroke="#1a1010" stroke-width="1"/><circle cx="280.8813581791076" cy="561.3502709639861" r="8.96" fill="#d07040" stroke="#1a1010" stroke-width="1"/><path d="M319.516275957832,697.7728815942141 L356.7233707271319,784.9848635428384 L371.48483453825264,779.1413575615827 L338.91705696673364,690.0928451617065 Z" fill="#d07040" stroke="#1a1010" stroke-width="1"/><circle cx="329.21666646228283" cy="693.9328633779603" r="10.4328" fill="#d07040" stroke="#1a1010" stroke-width="1"/><circle cx="364.1041026326923" cy="782.0631105522106" r="7.938" fill="#d07040" stroke="#1a1010" stroke-width="1"/><path d="M272.07542984758584,559.6958144912732 L262.150180238471,624.654571945982 L275.3590727357537,627.1362566550514 L289.6872865106294,563.004727436699 Z" fill="#d07040" stroke="#1a1010" stroke-width="1"/><circle cx="280.8813581791076" cy="561.3502709639861" r="8.96" fill="#d07040" stroke="#1a1010" stroke-width="1"/><circle cx="268.7546264871124" cy="625.8954143005167" r="6.72" fill="#d07040" stroke="#1a1010" stroke-width="1"/><path d="M296.7457354984679,488.32349899084346 L294.3337956503425,480.06470500269825 L276.7284205165697,481.1694069530604 L275.36777997888663,489.66492278771176 Z" fill="#4a2830" stroke="#1a1010" stroke-width="1"/><circle cx="286.0567577386773" cy="488.9942108892776" r="10.71" fill="#4a2830" stroke="#1a1010" stroke-width="1"/><circle cx="285.5311080834561" cy="480.6170559778793" r="8.820000000000002" fill="#4a2830" stroke="#1a1010" stroke-width="1"/><path d="M295.6962056820781,537.6226433055614 L295.3087562150499,585.614640979317 L353.2114858540557,583.0386944829389 L348.5639153524747,535.2706921566945 Z" fill="#d07040" stroke="#1a1010" stroke-width="1"/><circle cx="322.1300605172764" cy="536.446667731128" r="26.46" fill="#d07040" stroke="#1a1010" stroke-width="1"/><circle cx="324.2601210345528" cy="584.3266677311279" r="28.980000000000004" fill="#d07040" stroke="#1a1010" stroke-width="1"/><path d="M288.709866665987,489.9586868956036 L295.6962056820781,537.6226433055614 L348.5639153524747,535.2706921566945 L351.290133334013,487.1746485666523 Z" fill="#d07040" stroke="#1a1010" stroke-width="1"/><circle cx="320" cy="488.56666773112795" r="31.321081740811227" fill="#d07040" stroke="#1a1010" stroke-width="1"/><circle cx="322.1300605172764" cy="536.446667731128" r="26.46" fill="#d07040" stroke="#1a1010" stroke-width="1"/><path d="M346.21047435324647,489.18445132985903 L384.18811005178486,554.5748653896642 L399.9439969409052,546.03797905229 L365.90533296464685,478.5133434081413 Z" fill="#d07040" stroke="#1a1010" stroke-width="1"/><circle cx="356.05790365894666" cy="483.84889736900016" r="11.200000000000001" fill="#d07040" stroke="#1a1010" stroke-width="1"/><circle cx="392.06605349634503" cy="550.3064222209771" r="8.96" fill="#d07040" stroke="#1a1010" stroke-width="1"/><path d="M340.41157668932783,432.3350153883672 L340.41157668932783,432.30701538836723 L292.53157668932784,432.30701538836723 L292.53157668932784,432.3350153883672 Z" fill="#d07040" stroke="#1a1010" stroke-width="1"/><circle cx="316.47157668932783" cy="432.3350153883672" r="23.94" fill="#d07040" stroke="#1a1010" stroke-width="1"/><circle cx="316.47157668932783" cy="432.30701538836723" r="23.94" fill="#d07040" stroke="#1a1010" stroke-width="1"/><path d="M316.33135347096436,428.7468117133381 L316.33135347096436,428.7468117133381 L316.33135347096436,428.7468117133381 L316.33135347096436,428.7468117133381 Z" fill="#4a2830" stroke="#1a1010" stroke-width="1"/><circle cx="316.33135347096436" cy="428.7468117133381" r="24.418800000000005" fill="#4a2830" stroke="#1a1010" stroke-width="1"/><circle cx="316.33135347096436" cy="428.7468117133381" r="24.418800000000005" fill="#4a2830" stroke="#1a1010" stroke-width="1"/><path d="M325.4359915300419,454.4798899561302 L329.61273169989397,431.51043428970405 L303.3304216787617,433.15959648703034 L310.3456699868081,455.4267773421548 Z" fill="#d07040" stroke="#1a1010" stroke-width="1"/><circle cx="317.890830758425" cy="454.9533336491425" r="7.56" fill="#d07040" stroke="#1a1010" stroke-width="1"/><circle cx="316.47157668932783" cy="432.3350153883672" r="13.167000000000002" fill="#d07040" stroke="#1a1010" stroke-width="1"/><path d="M276.59462648711235,625.8954143005167 L276.59462648711235,625.8674143005167 L260.9146264871124,625.8674143005167 L260.9146264871124,625.8954143005167 Z" fill="#d07040" stroke="#1a1010" stroke-width="1"/><circle cx="268.7546264871124" cy="625.8954143005167" r="7.84" fill="#d07040" stroke="#1a1010" stroke-width="1"/><circle cx="268.7546264871124" cy="625.8674143005167" r="7.84" fill="#d07040" stroke="#1a1010" stroke-width="1"/><path d="M314.6887391698513,584.4557205471082 L317.31273633382034,693.662499740089 L341.1205965907453,694.2032270158317 L348.69996810831555,585.2281880838835 Z" fill="#d07040" stroke="#1a1010" stroke-width="1"/><circle cx="331.69435363908343" cy="584.8419543154959" r="17.009999999999998" fill="#d07040" stroke="#1a1010" stroke-width="1"/><circle cx="329.21666646228283" cy="693.9328633779603" r="11.907" fill="#d07040" stroke="#1a1010" stroke-width="1"/><path d="M364.31683022798063,482.4421197277052 L361.9048903798552,474.18332573955996 L344.2995152460824,475.2880276899221 L342.93887470839934,483.7835435245735 Z" fill="#4a2830" stroke="#1a1010" stroke-width="1"/><circle cx="353.62785246819" cy="483.1128316261393" r="10.71" fill="#4a2830" stroke="#1a1010" stroke-width="1"/><circle cx="353.1022028129688" cy="474.73567671474103" r="8.820000000000002" fill="#4a2830" stroke="#1a1010" stroke-width="1"/><path d="M383.2176564816738,548.896645546905 L375.4456007739377,611.9141689292275 L388.7181962959445,614.0288339403356 L400.91445051101624,551.7161988950492 Z" fill="#d07040" stroke="#1a1010" stroke-width="1"/><circle cx="392.06605349634503" cy="550.3064222209771" r="8.96" fill="#d07040" stroke="#1a1010" stroke-width="1"/><circle cx="382.0818985349411" cy="612.9715014347815" r="6.72" fill="#d07040" stroke="#1a1010" stroke-width="1"/><path d="M289.3818146810789,489.8932772641884 L302.51551903360183,536.5456088949758 L327.5956750149425,532.5173265672803 L325.45942001138036,484.0986251062931 Z" fill="#4a2830" stroke="#1a1010" stroke-width="1"/><circle cx="307.4206173462296" cy="486.99595118524076" r="18.27" fill="#4a2830" stroke="#1a1010" stroke-width="1"/><circle cx="315.0555970242722" cy="534.531467731128" r="12.7008" fill="#4a2830" stroke="#1a1010" stroke-width="1"/><path d="M300.7951347915779,434.38775631382526 L312.5000527861272,433.89343296918634 L312.33127480467897,429.89699530634476 L300.62635681012966,430.3913186509837 Z" fill="#241018" stroke="#1a1010" stroke-width="1"/><circle cx="300.7107458008538" cy="432.3895374824045" r="2" fill="#241018" stroke="#1a1010" stroke-width="1"/><circle cx="312.4156637954031" cy="431.89521413776555" r="2" fill="#241018" stroke="#1a1010" stroke-width="1"/><path d="M389.9218985349411,612.9715014347815 L389.9218985349411,612.9435014347815 L374.24189853494113,612.9435014347815 L374.24189853494113,612.9715014347815 Z" fill="#d07040" stroke="#1a1010" stroke-width="1"/><circle cx="382.0818985349411" cy="612.9715014347815" r="7.84" fill="#d07040" stroke="#1a1010" stroke-width="1"/><circle cx="382.0818985349411" cy="612.9435014347815" r="7.84" fill="#d07040" stroke="#1a1010" stroke-width="1"/><path d="M370.0249922683648,619.1315014347815 L394.13880480151744,619.1315014347815 L394.13880480151744,606.8115014347816 L370.0249922683648,606.8115014347816 Z" fill="#241018" stroke="#1a1010" stroke-width="1"/><circle cx="370.0249922683648" cy="612.9715014347815" r="6.159999999999999" fill="#241018" stroke="#1a1010" stroke-width="1"/><circle cx="394.13880480151744" cy="612.9715014347815" r="6.159999999999999" fill="#241018" stroke="#1a1010" stroke-width="1"/><path d="M380.20050404525415,640.2925449768285 L434.4243893827196,858.0475161419721 L439.8874669448245,856.8167507092325 L395.4971212191477,636.8464017651578 Z" fill="#4a2830" stroke="#1a1010" stroke-width="1"/><circle cx="387.8488126322009" cy="638.5694733709931" r="7.84" fill="#4a2830" stroke="#1a1010" stroke-width="1"/><circle cx="437.15592816377205" cy="857.4321334256023" r="2.8000000000000003" fill="#4a2830" stroke="#1a1010" stroke-width="1"/></svg>